<svg width="183" height="105" viewBox="0 0 183 105" fill="none" xmlns="http://www.w3.org/2000/svg">
<g clip-path="url(#clip0_0_1)" filter="url(#filter0_d_0_1)">
<path d="M76.6552 9.67789C82.5716 14.2054 75.5224 18.0649 75.5224 18.0649C66.8864 13.5302 63.6372 17.7057 63.6372 17.7057C68.6629 17.1212 70.6131 18.7753 70.6131 18.7753C57.3828 20.5025 50.7342 35.116 48.58 41.0828C43.2334 39.9543 31.768 36.963 30.3575 32.0984C28.5215 25.7111 35.2885 24.0759 35.2885 24.0759C44.1726 15.5735 40.6875 12.8157 40.6875 12.8157C40.0163 16.8959 31.2352 21.5636 31.2352 21.5636C37.3603 15.895 37.651 10.9985 37.651 10.9985C34.1366 16.3543 24.5502 16.2048 24.5502 16.2048C13.8585 8.38422 8.98749 20.4178 8.98749 20.4178C13.5199 14.4937 17.3697 21.5414 17.3697 21.5414C12.8269 30.1862 16.997 33.4318 16.997 33.4318C16.4186 28.4047 18.0742 26.4518 18.0742 26.4518C19.9334 40.8574 37.0607 47.4432 41.7362 48.9589C40.5825 54.1867 37.5853 66.1222 32.5988 67.5585C26.212 69.4026 24.5853 62.6347 24.5853 62.6347C16.1471 53.7101 13.3864 57.1998 13.3864 57.1998C17.4641 57.8666 22.1198 66.6459 22.1198 66.6459C16.4606 60.5248 11.5664 60.2397 11.5664 60.2397C16.916 63.7493 16.7555 73.3398 16.7555 73.3398C8.92576 84.045 20.9488 88.9041 20.9488 88.9041C15.0323 84.3766 22.0816 80.5171 22.0816 80.5171C30.7176 85.0518 33.9667 80.8763 33.9667 80.8763C28.941 81.4608 26.9908 79.8067 26.9908 79.8067C40.9776 77.9871 47.6177 61.7455 49.3766 56.5652C54.89 57.773 65.7754 60.6934 67.1412 65.4592C68.9773 71.8465 62.2102 73.4817 62.2102 73.4817C53.2795 81.9337 56.7646 84.6914 56.7646 84.6914C57.4358 80.6113 66.2169 75.9436 66.2169 75.9436C60.0918 81.6122 59.8012 86.5087 59.8012 86.5087C63.3155 81.1529 72.9019 81.3023 72.9019 81.3023C83.5937 89.123 88.4647 77.0894 88.4647 77.0894C83.9322 83.0135 80.0824 75.9658 80.0824 75.9658C84.6252 67.321 80.4552 64.0754 80.4552 64.0754C81.0336 69.1024 79.3779 71.0554 79.3779 71.0554C77.5791 56.9679 61.1326 50.3597 56.0516 48.6583C57.2672 43.0927 60.2398 32.3954 64.9314 31.045C71.3182 29.2008 72.9449 35.9688 72.9449 35.9688C81.3832 44.8934 84.1438 41.4037 84.1438 41.4037C80.0661 40.7369 75.4105 31.9576 75.4105 31.9576C81.0697 38.0786 85.9638 38.3637 85.9638 38.3637C80.6143 34.8542 80.7747 25.2636 80.7747 25.2636C88.6782 14.537 76.6552 9.67789 76.6552 9.67789Z" fill="url(#paint0_linear_0_1)"/>
</g>
<g clip-path="url(#clip1_0_1)">
<path d="M107 27H109.321V54.4049H116.251V27H118.572V73H116.251V56.7131H109.321V73H107V27Z" fill="url(#paint1_linear_0_1)"/>
<path d="M135.733 27L129.98 56.7131V73H127.659V56.7131L121.873 27H123.998L128.836 51.7717L133.641 27H135.733Z" fill="url(#paint2_linear_0_1)"/>
<path d="M145.997 73H139.034V27H145.964C148.547 27 150.573 29.0481 150.573 31.5837V68.3837C150.606 70.8869 148.547 73 145.997 73ZM141.355 29.3081V70.6919H145.964C147.206 70.6919 148.285 69.6516 148.285 68.3837V31.5837C148.285 30.3484 147.239 29.2756 145.964 29.2756H141.355V29.3081Z" fill="url(#paint3_linear_0_1)"/>
<path d="M165.806 73H163.42L159.334 56.7131H156.555V73H154.234V27H161.164C163.747 27 165.773 29.0481 165.773 31.5837V52.0968C165.773 54.4049 163.975 56.3555 161.687 56.6155L165.806 73ZM156.555 54.4049H161.164C162.406 54.4049 163.485 53.3647 163.485 52.0968V31.5837C163.485 30.3484 162.439 29.2756 161.164 29.2756H156.555V54.4049Z" fill="url(#paint4_linear_0_1)"/>
<path d="M172.801 56.7131L171.2 73H169.108L173.749 27H178.358L182.967 73H180.875L179.274 56.7131H172.801ZM176.495 29.3081H175.58L173.063 54.4049H179.012L176.495 29.3081Z" fill="url(#paint5_linear_0_1)"/>
</g>
<defs>
<filter id="filter0_d_0_1" x="-6" y="0" width="109" height="114" filterUnits="userSpaceOnUse" color-interpolation-filters="sRGB">
<feFlood flood-opacity="0" result="BackgroundImageFix"/>
<feColorMatrix in="SourceAlpha" type="matrix" values="0 0 0 0 0 0 0 0 0 0 0 0 0 0 0 0 0 0 127 0" result="hardAlpha"/>
<feOffset dy="10"/>
<feGaussianBlur stdDeviation="3"/>
<feComposite in2="hardAlpha" operator="out"/>
<feColorMatrix type="matrix" values="0 0 0 0 0 0 0 0 0 0 0 0 0 0 0 0 0 0 0.25 0"/>
<feBlend mode="normal" in2="BackgroundImageFix" result="effect1_dropShadow_0_1"/>
<feBlend mode="normal" in="SourceGraphic" in2="effect1_dropShadow_0_1" result="shape"/>
</filter>
<linearGradient id="paint0_linear_0_1" x1="15.2643" y1="13.0209" x2="81.7652" y2="84.8775" gradientUnits="userSpaceOnUse">
<stop stop-color="#C0B7E8"/>
<stop offset="1" stop-color="#8176AF"/>
</linearGradient>
<linearGradient id="paint1_linear_0_1" x1="112.786" y1="27" x2="112.786" y2="73" gradientUnits="userSpaceOnUse">
<stop stop-color="#C0B7E8"/>
<stop offset="1" stop-color="#8176AF"/>
</linearGradient>
<linearGradient id="paint2_linear_0_1" x1="128.803" y1="27" x2="128.803" y2="73" gradientUnits="userSpaceOnUse">
<stop stop-color="#C0B7E8"/>
<stop offset="1" stop-color="#8176AF"/>
</linearGradient>
<linearGradient id="paint3_linear_0_1" x1="144.804" y1="27" x2="144.804" y2="73" gradientUnits="userSpaceOnUse">
<stop stop-color="#C0B7E8"/>
<stop offset="1" stop-color="#8176AF"/>
</linearGradient>
<linearGradient id="paint4_linear_0_1" x1="160.02" y1="27" x2="160.02" y2="73" gradientUnits="userSpaceOnUse">
<stop stop-color="#C0B7E8"/>
<stop offset="1" stop-color="#8176AF"/>
</linearGradient>
<linearGradient id="paint5_linear_0_1" x1="176.037" y1="27" x2="176.037" y2="73" gradientUnits="userSpaceOnUse">
<stop stop-color="#C0B7E8"/>
<stop offset="1" stop-color="#8176AF"/>
</linearGradient>
<clipPath id="clip0_0_1">
<rect width="97" height="98" fill="white"/>
</clipPath>
<clipPath id="clip1_0_1">
<rect width="76" height="46" fill="white" transform="translate(107 27)"/>
</clipPath>
</defs>
</svg>
